<svg xmlns="http://www.w3.org/2000/svg" viewBox="0 0 338 325" role="img" aria-label="obstack">
<path fill="#00B4FB" d="M167.81 319.44C166.75 319.19 157.52 314.85 147.31 309.8C122.29 297.41 60.37 267.44 27 251.56C11.53 244.21 8.47 242.51 7.17 240.58C5.67 238.37 5.39 234.39 5.59 218.5C5.77 203.32 5.75 203.4 10.17 201.17C13.25 199.6 14.99 199.75 19.79 202C21.69 202.9 24.82 204.36 26.75 205.25C28.68 206.14 36.24 209.82 43.56 213.43C50.88 217.04 57.01 220 57.18 220C57.45 220 64.95 223.6 83.31 232.55C86.65 234.17 89.54 235.5 89.75 235.5C89.96 235.5 96.57 238.67 104.44 242.55C112.31 246.43 120.89 250.58 123.5 251.77C126.11 252.96 136.57 258.08 146.75 263.16C166.5 273.01 168.63 274 170 274C171.34 274 191.83 264.16 206 256.71C211.09 254.04 217.61 250.86 220.5 249.65C223.39 248.44 227.21 246.59 229 245.53C230.79 244.47 233.68 243.01 235.42 242.28C237.17 241.55 242.34 239.07 246.92 236.78C258.1 231.18 280.98 220 281.25 220C281.37 220 285.13 218.23 289.61 216.06C312.64 204.92 320.95 201.05 322.94 200.51C327.53 199.28 332.49 201.97 333.25 206.11C333.42 207.01 333.48 214.84 333.4 223.5L333.25 239.25L332.04 240.95C330.8 242.69 330.82 242.68 307.5 253.88C304.06 255.53 296.75 259.07 291.25 261.75C269.19 272.47 262.91 275.5 262.72 275.5C262.61 275.5 252.73 280.34 240.77 286.25C228.8 292.16 218.91 297 218.78 297C218.65 297 211.62 300.44 203.15 304.64C194.68 308.84 186.18 313.01 184.25 313.89C182.32 314.78 179.4 316.26 177.75 317.17C175.32 318.5 170.6 320.18 169.9 319.95C169.82 319.92 168.88 319.69 167.81 319.44Z"/>
<path fill="#02C8C5" d="M157.5 246.11C147.33 241.19 105.9 220.89 84.7 210.45C78.62 207.45 73.52 205 73.36 205C73.21 205 65.25 201.21 55.67 196.58C46.09 191.94 36.34 187.28 34.01 186.2C31.68 185.13 24.6 181.66 18.26 178.5C9.69 174.22 6.59 172.43 6.13 171.5C5.68 170.58 5.51 165.56 5.51 152.45C5.5 134.76 5.51 134.64 6.64 132.96C8.17 130.68 10.79 129 12.81 129C13.96 129 20.12 131.78 32.61 137.94C42.59 142.85 53.79 148.35 57.5 150.15C61.21 151.95 70.98 156.7 79.2 160.71C87.42 164.72 94.23 168 94.34 168C94.44 168 101.55 171.47 110.14 175.7C169.1 204.79 167.42 204 170.23 204C171.98 204 170.21 204.86 234.5 172.89C277.3 151.6 298.08 141.37 302.25 139.5C303.62 138.89 309 136.28 314.19 133.69C324.53 128.55 326.14 128.16 329.43 130.03C333.37 132.27 333.23 131.49 333.4 152.42C333.5 165.84 333.39 171.29 332.98 171.78C332.51 172.34 323.96 177.26 322.25 177.95C321.98 178.06 318.94 179.49 315.5 181.13C312.06 182.77 307.23 185.07 304.75 186.24C302.27 187.41 295.19 190.84 289 193.86C282.81 196.88 276.85 199.75 275.75 200.24C273.41 201.28 260.08 207.78 237.89 218.7C229.17 223 217.02 228.95 210.89 231.94C204.76 234.92 193.71 240.34 186.33 243.97C175.84 249.14 172.34 250.64 170.33 250.82C167.88 251.05 167.23 250.81 157.5 246.11Z"/>
<path fill="#5AE4AD" d="M167.25 174.05C166.43 173.83 155.18 168.3 142.25 161.75C94.77 137.7 90.17 135.36 86.25 133.26C84.05 132.08 73.36 126.62 62.5 121.12C26.3 102.8 6.03 92.14 6.01 91.42C6 91.24 8.87 89.57 12.38 87.72C23.52 81.83 26.18 80.4 29 78.74C30.51 77.86 37.49 74.14 44.5 70.49C51.51 66.84 58.71 63.02 60.5 62C62.29 60.98 68.47 57.72 74.25 54.75C80.03 51.78 86.21 48.52 88 47.5C89.79 46.49 94.62 43.9 98.75 41.76C102.88 39.62 109.96 35.9 114.5 33.5C132.79 23.82 134.95 22.69 140 20.21C142.89 18.79 147.84 16.18 151 14.42C154.16 12.65 159.14 10.04 162.06 8.6C170.21 4.61 170.1 4.6 184.81 12.05C191.38 15.38 196.97 18.28 197.25 18.49C197.53 18.7 201.91 20.97 207 23.54C212.09 26.12 219.18 29.82 222.75 31.78C226.32 33.73 232.85 37.2 237.25 39.48C249.77 45.97 255.41 48.95 260 51.52C262.34 52.82 267.06 55.34 270.5 57.11C273.94 58.88 280.8 62.54 285.75 65.24C290.7 67.94 298.46 72.11 303 74.5C307.54 76.9 312.49 79.53 314 80.35C315.51 81.17 320.42 83.82 324.9 86.23C329.38 88.65 332.96 90.86 332.87 91.15C332.61 91.93 329.04 93.86 300 108.89C296.01 110.95 289.94 114.1 286.5 115.89C283.06 117.67 275.3 121.66 269.25 124.74C263.2 127.82 256.11 131.47 253.5 132.85C250.89 134.24 242.79 138.41 235.5 142.13C228.21 145.85 220.68 149.73 218.75 150.76C214.76 152.89 185.15 168.02 178 171.58C173.13 174.01 169.93 174.74 167.25 174.05Z"/>
<path fill="#022E3D" d="M161.27 120.23C151.58 117.57 143.46 109.67 139.95 99.5C138.51 95.34 138.34 85.78 139.63 81.62C142.64 71.95 150.32 63.99 159.59 60.95C162.72 59.92 164.23 59.75 170 59.75C175.61 59.75 177.35 59.94 180.34 60.88C187.46 63.12 194.63 69.18 198.21 75.99C200.58 80.5 201.5 84.33 201.5 89.7C201.5 104.7 192.15 116.57 177.25 120.47C174.46 121.2 164.25 121.05 161.27 120.23Z"/>
</svg>
